<?xml version="1.0" encoding="utf-8"?>
<svg viewBox="2.609 -8.319 206.514 47.795" xmlns="http://www.w3.org/2000/svg">
  <path d="M 14.277 28.854 C 11.97 28.854 10.004 28.341 8.377 27.314 C 6.75 26.281 5.527 24.814 4.707 22.914 C 3.887 21.014 3.537 18.751 3.657 16.124 C 3.77 13.557 4.32 11.294 5.307 9.334 C 6.294 7.374 7.637 5.844 9.337 4.744 C 11.044 3.651 13.027 3.104 15.287 3.104 C 17.594 3.104 19.547 3.617 21.147 4.644 C 22.747 5.677 23.944 7.144 24.737 9.044 C 25.53 10.944 25.877 13.197 25.777 15.804 C 25.717 17.104 25.457 18.294 24.997 19.374 C 24.53 20.454 23.847 21.321 22.947 21.974 C 22.054 22.627 20.937 22.954 19.597 22.954 C 18.93 22.954 18.354 22.764 17.867 22.384 C 17.38 22.004 17.03 21.474 16.817 20.794 C 15.917 22.234 14.6 22.954 12.867 22.954 C 11.727 22.954 10.844 22.404 10.217 21.304 C 9.584 20.204 9.35 18.761 9.517 16.974 C 9.657 15.401 9.987 14.027 10.507 12.854 C 11.034 11.681 11.7 10.771 12.507 10.124 C 13.314 9.477 14.214 9.154 15.207 9.154 C 16.16 9.154 16.927 9.274 17.507 9.514 C 18.087 9.747 18.727 10.111 19.427 10.604 L 19.457 10.664 L 18.757 18.654 C 18.704 19.321 18.734 19.847 18.847 20.234 C 18.954 20.621 19.124 20.894 19.357 21.054 C 19.59 21.214 19.86 21.294 20.167 21.294 C 21.287 21.294 22.184 20.777 22.857 19.744 C 23.524 18.711 23.894 17.397 23.967 15.804 C 24.12 12.317 23.467 9.604 22.007 7.664 C 20.547 5.717 18.29 4.744 15.237 4.744 C 13.357 4.744 11.72 5.221 10.327 6.174 C 8.934 7.134 7.834 8.471 7.027 10.184 C 6.227 11.897 5.78 13.877 5.687 16.124 C 5.58 18.417 5.854 20.391 6.507 22.044 C 7.167 23.704 8.16 24.987 9.487 25.894 C 10.814 26.794 12.427 27.244 14.327 27.244 C 15.134 27.244 15.947 27.147 16.767 26.954 C 17.587 26.754 18.28 26.494 18.847 26.174 L 19.377 27.644 C 18.757 28.024 17.974 28.321 17.027 28.534 C 16.087 28.747 15.17 28.854 14.277 28.854 Z M 13.687 20.944 C 14.26 20.944 14.79 20.831 15.277 20.604 C 15.77 20.371 16.217 19.967 16.617 19.394 C 16.604 19.287 16.6 19.174 16.607 19.054 C 16.614 18.934 16.624 18.801 16.637 18.654 L 17.287 11.304 C 17.047 11.191 16.797 11.104 16.537 11.044 C 16.277 10.977 16.007 10.944 15.727 10.944 C 14.587 10.944 13.717 11.441 13.117 12.434 C 12.51 13.427 12.114 14.941 11.927 16.974 C 11.827 18.261 11.927 19.244 12.227 19.924 C 12.527 20.604 13.014 20.944 13.687 20.944 Z" transform="matrix(1.2234450578689575, 0, 0, 1.272420048713684, -0.4116699993610382, 0.8268429636955261)" style="fill: rgb(51, 51, 51); white-space: pre;"/>
  <path d="M 39.341 17.484 L 42.701 3.064 L 50.181 3.064 L 50.181 3.594 L 48.641 3.594 L 48.641 22.134 L 50.181 22.134 L 50.181 22.664 L 41.641 22.664 L 41.641 22.134 L 43.181 22.134 L 43.181 4.634 L 43.071 4.634 L 38.871 22.664 L 35.371 22.664 L 30.441 4.544 L 30.331 4.544 L 30.331 22.134 L 31.871 22.134 L 31.871 22.664 L 28.061 22.664 L 28.061 22.134 L 29.601 22.134 L 29.601 3.594 L 28.061 3.594 L 28.061 3.064 L 35.621 3.064 L 39.341 17.484 ZM 58.51 22.944 C 56.103 22.944 54.3 22.324 53.1 21.084 C 51.893 19.844 51.29 18.117 51.29 15.904 C 51.29 13.691 51.967 11.997 53.32 10.824 C 54.673 9.644 56.397 9.054 58.49 9.054 C 62.723 9.054 64.757 11.184 64.59 15.444 L 56.69 15.444 L 56.69 16.534 C 56.69 18.361 56.923 19.741 57.39 20.674 C 57.857 21.607 58.67 22.074 59.83 22.074 C 61.997 22.074 63.417 20.917 64.09 18.604 L 64.59 18.684 C 64.237 20.031 63.597 21.077 62.67 21.824 C 61.75 22.571 60.363 22.944 58.51 22.944 Z M 56.72 13.504 L 56.72 14.884 L 59.61 14.884 L 59.61 13.504 C 59.61 11.997 59.52 10.967 59.34 10.414 C 59.16 9.861 58.807 9.584 58.28 9.584 C 57.747 9.584 57.353 9.881 57.1 10.474 C 56.847 11.061 56.72 12.071 56.72 13.504 ZM 71.271 16.864 C 71.271 18.824 71.374 20.127 71.581 20.774 C 71.788 21.421 72.168 21.744 72.721 21.744 C 73.268 21.744 73.741 21.501 74.141 21.014 C 74.548 20.527 74.751 19.807 74.751 18.854 L 74.751 12.754 C 74.751 11.947 74.591 11.264 74.271 10.704 C 73.951 10.144 73.484 9.864 72.871 9.864 C 72.258 9.864 71.838 10.277 71.611 11.104 C 71.384 11.924 71.271 13.361 71.271 15.414 L 71.271 16.864 Z M 81.331 22.664 L 75.111 22.664 L 74.801 20.704 C 74.168 22.197 72.881 22.944 70.941 22.944 C 69.334 22.944 68.088 22.364 67.201 21.204 C 66.314 20.051 65.871 18.324 65.871 16.024 C 65.871 11.377 67.718 9.054 71.411 9.054 C 73.058 9.054 74.141 9.511 74.661 10.424 L 74.661 2.164 L 72.951 2.164 L 72.951 1.664 L 79.951 1.664 L 79.951 22.164 L 81.331 22.164 L 81.331 22.664 Z" transform="matrix(1.2234450578689575, 0, 0, 1.272420048713684, -0.4116699993610382, 0.8268429636955261)" style="fill: rgb(51, 51, 51); white-space: pre;"/>
  <path d="M 88.427 22.664 L 82.727 22.664 L 82.727 20.944 L 84.197 20.734 L 91.157 2.754 L 93.467 2.754 L 100.307 20.734 L 101.767 20.944 L 101.767 22.664 L 96.057 22.664 L 96.057 20.944 L 97.557 20.684 L 96.247 17.014 L 88.277 17.014 L 86.917 20.684 L 88.427 20.944 L 88.427 22.664 Z M 92.087 6.664 L 89.107 14.764 L 95.427 14.764 L 92.497 6.664 L 92.337 6.214 L 92.257 6.214 L 92.087 6.664 ZM 110.876 22.664 L 103.726 22.664 L 103.726 20.944 L 105.956 20.554 L 105.956 9.994 L 103.726 9.604 L 103.726 7.874 L 108.376 7.874 L 108.556 9.794 C 109.029 9.094 109.639 8.554 110.386 8.174 C 111.133 7.787 111.999 7.594 112.986 7.594 C 113.966 7.594 114.809 7.824 115.516 8.284 C 116.223 8.737 116.756 9.421 117.116 10.334 C 117.576 9.494 118.189 8.827 118.956 8.334 C 119.723 7.841 120.616 7.594 121.636 7.594 C 123.149 7.594 124.343 8.114 125.216 9.154 C 126.096 10.187 126.536 11.741 126.536 13.814 L 126.536 20.554 L 128.756 20.944 L 128.756 22.664 L 121.596 22.664 L 121.596 20.944 L 123.826 20.554 L 123.826 13.794 C 123.826 12.334 123.576 11.301 123.076 10.694 C 122.576 10.087 121.833 9.784 120.846 9.784 C 119.906 9.784 119.153 10.114 118.586 10.774 C 118.013 11.434 117.683 12.267 117.596 13.274 L 117.596 20.554 L 119.816 20.944 L 119.816 22.664 L 112.666 22.664 L 112.666 20.944 L 114.896 20.554 L 114.896 13.794 C 114.896 12.407 114.639 11.391 114.126 10.744 C 113.613 10.104 112.866 9.784 111.886 9.784 C 111.066 9.784 110.393 9.954 109.866 10.294 C 109.339 10.627 108.933 11.101 108.646 11.714 L 108.646 20.554 L 110.876 20.944 L 110.876 22.664 ZM 137.802 22.664 L 130.652 22.664 L 130.652 20.944 L 132.872 20.554 L 132.872 9.994 L 130.652 9.604 L 130.652 7.874 L 135.572 7.874 L 135.572 20.554 L 137.802 20.944 L 137.802 22.664 Z M 135.572 4.224 L 132.742 4.224 L 132.742 1.334 L 135.572 1.334 L 135.572 4.224 ZM 146.802 22.664 L 139.652 22.664 L 139.652 20.944 L 141.882 20.554 L 141.882 9.994 L 139.652 9.604 L 139.652 7.874 L 144.292 7.874 L 144.482 10.074 C 144.975 9.287 145.592 8.677 146.332 8.244 C 147.072 7.811 147.919 7.594 148.872 7.594 C 150.465 7.594 151.699 8.061 152.572 8.994 C 153.445 9.934 153.882 11.377 153.882 13.324 L 153.882 20.554 L 156.112 20.944 L 156.112 22.664 L 148.962 22.664 L 148.962 20.944 L 151.192 20.554 L 151.192 13.384 C 151.192 12.077 150.935 11.151 150.422 10.604 C 149.909 10.057 149.122 9.784 148.062 9.784 C 147.289 9.784 146.602 9.971 146.002 10.344 C 145.409 10.717 144.932 11.227 144.572 11.874 L 144.572 20.554 L 146.802 20.944 L 146.802 22.664 ZM 164.539 22.954 C 163.173 22.954 161.983 22.641 160.969 22.014 C 159.963 21.387 159.183 20.521 158.629 19.414 C 158.076 18.301 157.799 17.014 157.799 15.554 L 157.799 14.954 C 157.799 13.547 158.089 12.291 158.669 11.184 C 159.249 10.077 160.019 9.204 160.979 8.564 C 161.939 7.917 162.989 7.594 164.129 7.594 C 165.463 7.594 166.576 7.867 167.469 8.414 C 168.369 8.961 169.046 9.731 169.499 10.724 C 169.959 11.711 170.189 12.874 170.189 14.214 L 170.189 15.894 L 160.589 15.894 L 160.549 15.964 C 160.569 16.911 160.736 17.751 161.049 18.484 C 161.363 19.217 161.816 19.794 162.409 20.214 C 163.003 20.634 163.713 20.844 164.539 20.844 C 165.453 20.844 166.253 20.714 166.939 20.454 C 167.626 20.194 168.223 19.837 168.729 19.384 L 169.779 21.134 C 169.253 21.641 168.553 22.071 167.679 22.424 C 166.806 22.777 165.759 22.954 164.539 22.954 Z M 160.649 13.724 L 160.669 13.794 L 167.499 13.794 L 167.499 13.434 C 167.499 12.727 167.373 12.091 167.119 11.524 C 166.866 10.964 166.493 10.524 165.999 10.204 C 165.499 9.877 164.876 9.714 164.129 9.714 C 163.529 9.714 162.983 9.891 162.489 10.244 C 161.996 10.597 161.589 11.074 161.269 11.674 C 160.956 12.274 160.749 12.957 160.649 13.724 Z" transform="matrix(1.2234450578689575, 0, 0, 1.272420048713684, -0.4116699993610382, 0.8268429636955261)" style="fill: rgb(51, 51, 51); white-space: pre;"/>
</svg>