<svg width="308" height="431" viewBox="0 0 308 431" fill="none" xmlns="http://www.w3.org/2000/svg">
<g clip-path="url(#clip0)">
<path d="M170.8 146.7C171 147.8 171.4 148.9 171.8 149.8" stroke="#BEC0C2" stroke-width="2" stroke-miterlimit="10" stroke-linecap="round" stroke-linejoin="round"/>
<path d="M195 126.4C194.9 126.6 194.8 126.8 194.7 127" stroke="#BEC0C2" stroke-width="2" stroke-miterlimit="10" stroke-linecap="round" stroke-linejoin="round"/>
<path d="M195 126.4C194.6 127.4 193.9 128.3 193.2 129.1" stroke="#BEC0C2" stroke-width="2" stroke-miterlimit="10" stroke-linecap="round" stroke-linejoin="round"/>
<path d="M186.1 133.6C186.2 132.7 186.7 131.8 187.4 131.3" stroke="#BEC0C2" stroke-width="2" stroke-miterlimit="10" stroke-linecap="round" stroke-linejoin="round"/>
<path d="M222.1 129.6C221.9 130.5 221.4 131.3 220.7 131.9" stroke="#BEC0C2" stroke-width="2" stroke-miterlimit="10" stroke-linecap="round" stroke-linejoin="round"/>
<path d="M238.3 124.2C238.1 125.1 237.6 125.9 236.9 126.5" stroke="#BEC0C2" stroke-width="2" stroke-miterlimit="10" stroke-linecap="round" stroke-linejoin="round"/>
<path d="M181.1 132.6C180.7 133.1 180.2 133.6 179.7 133.9" stroke="#BEC0C2" stroke-width="2" stroke-miterlimit="10" stroke-linecap="round" stroke-linejoin="round"/>
<path d="M171.7 131.5C171.2 132.1 171 132.9 170.9 133.7" stroke="#BEC0C2" stroke-width="2" stroke-miterlimit="10" stroke-linecap="round" stroke-linejoin="round"/>
<path d="M200.7 124.9C200.7 125 200.6 125.2 200.6 125.3" stroke="#BEC0C2" stroke-width="2" stroke-miterlimit="10" stroke-linecap="round" stroke-linejoin="round"/>
<path d="M216.8 123.3C216.9 123.4 216.9 123.5 217 123.5" stroke="#BEC0C2" stroke-width="2" stroke-miterlimit="10" stroke-linecap="round" stroke-linejoin="round"/>
<path d="M212.2 127.5C212.2 127.8 212.3 128.2 212.3 128.5" stroke="#BEC0C2" stroke-width="2" stroke-miterlimit="10" stroke-linecap="round" stroke-linejoin="round"/>
<path d="M219.1 127.7C219.1 128.1 219.1 128.5 219.1 128.9" stroke="#BEC0C2" stroke-width="2" stroke-miterlimit="10" stroke-linecap="round" stroke-linejoin="round"/>
<path d="M229.6 127.6C229.6 127.7 229.6 127.9 229.6 128" stroke="#BEC0C2" stroke-width="2" stroke-miterlimit="10" stroke-linecap="round" stroke-linejoin="round"/>
<path d="M233.4 126.8C233.5 127.2 233.6 127.6 233.7 127.9" stroke="#BEC0C2" stroke-width="2" stroke-miterlimit="10" stroke-linecap="round" stroke-linejoin="round"/>
<path d="M215.6 127C215.7 127.4 215.8 127.8 215.9 128.1" stroke="#BEC0C2" stroke-width="2" stroke-miterlimit="10" stroke-linecap="round" stroke-linejoin="round"/>
<path d="M221.9 124C221.6 124.3 221.4 124.6 221.1 124.9" stroke="#BEC0C2" stroke-width="2" stroke-miterlimit="10" stroke-linecap="round" stroke-linejoin="round"/>
<path d="M209.4 126C209.4 126.1 209.4 126.3 209.4 126.4" stroke="#BEC0C2" stroke-width="2" stroke-miterlimit="10" stroke-linecap="round" stroke-linejoin="round"/>
<path d="M204.3 125.9C204.2 126.3 204.1 126.7 204 127" stroke="#BEC0C2" stroke-width="2" stroke-miterlimit="10" stroke-linecap="round" stroke-linejoin="round"/>
<path d="M226.1 123.3C226 123.7 225.9 124.1 225.8 124.4" stroke="#BEC0C2" stroke-width="2" stroke-miterlimit="10" stroke-linecap="round" stroke-linejoin="round"/>
<path d="M208.1 129.3C208.1 129.8 207.8 130.4 207.3 130.7" stroke="#BEC0C2" stroke-width="2" stroke-miterlimit="10" stroke-linecap="round" stroke-linejoin="round"/>
<path d="M191.3 127.1C191.2 127.7 190.7 128.2 190.1 128.3" stroke="#BEC0C2" stroke-width="2" stroke-miterlimit="10" stroke-linecap="round" stroke-linejoin="round"/>
<path d="M178.5 139.5C178.3 139.8 178.1 140.1 177.9 140.5" stroke="#BEC0C2" stroke-width="2" stroke-miterlimit="10" stroke-linecap="round" stroke-linejoin="round"/>
<path d="M167 136.7C166.8 137 166.6 137.3 166.4 137.7" stroke="#BEC0C2" stroke-width="2" stroke-miterlimit="10" stroke-linecap="round" stroke-linejoin="round"/>
<path d="M183.5 129.3C183.3 129.9 183 130.5 182.6 131" stroke="#BEC0C2" stroke-width="2" stroke-miterlimit="10" stroke-linecap="round" stroke-linejoin="round"/>
<path d="M174.2 134.4C174.1 134.8 174 135.2 173.9 135.7" stroke="#BEC0C2" stroke-width="2" stroke-miterlimit="10" stroke-linecap="round" stroke-linejoin="round"/>
<path d="M160 138.4C159.9 138.8 159.8 139.2 159.7 139.7" stroke="#BEC0C2" stroke-width="2" stroke-miterlimit="10" stroke-linecap="round" stroke-linejoin="round"/>
<path d="M176.5 133.6C176.5 133.9 176.4 134.1 176.4 134.4" stroke="#BEC0C2" stroke-width="2" stroke-miterlimit="10" stroke-linecap="round" stroke-linejoin="round"/>
<path d="M178.6 127.5C178.6 127.9 178.5 128.3 178.5 128.7" stroke="#BEC0C2" stroke-width="2" stroke-miterlimit="10" stroke-linecap="round" stroke-linejoin="round"/>
<path d="M186.4 126C186.2 126.5 186.1 127 186.2 127.5" stroke="#BEC0C2" stroke-width="2" stroke-miterlimit="10" stroke-linecap="round" stroke-linejoin="round"/>
<path d="M239.4 127.4C239.5 127.5 239.6 127.6 239.8 127.7" stroke="#BEC0C2" stroke-width="2" stroke-miterlimit="10" stroke-linecap="round" stroke-linejoin="round"/>
<path d="M131.1 135.7C131.2 135.9 131.2 136.1 131.3 136.3" stroke="#BEC0C2" stroke-width="2" stroke-miterlimit="10" stroke-linecap="round" stroke-linejoin="round"/>
<path d="M135 134.3C135.3 134.9 135.7 135.6 136 136.2" stroke="#BEC0C2" stroke-width="2" stroke-miterlimit="10" stroke-linecap="round" stroke-linejoin="round"/>
<path d="M134.4 140.7C134.8 141.2 135.2 141.8 135.6 142.3" stroke="#BEC0C2" stroke-width="2" stroke-miterlimit="10" stroke-linecap="round" stroke-linejoin="round"/>
<path d="M122.5 125.5C122.9 126 123.3 126.6 123.7 127.1" stroke="#BEC0C2" stroke-width="2" stroke-miterlimit="10" stroke-linecap="round" stroke-linejoin="round"/>
<path d="M138 145.4C138.8 146 139.7 146.5 140.5 147.1" stroke="#BEC0C2" stroke-width="2" stroke-miterlimit="10" stroke-linecap="round" stroke-linejoin="round"/>
<path d="M143.3 142.8C144.5 142.3 145.5 141.5 146.4 140.7" stroke="#BEC0C2" stroke-width="2" stroke-miterlimit="10" stroke-linecap="round" stroke-linejoin="round"/>
<path d="M139.8 134.1C140.6 135 141.7 135.9 142.8 136.5" stroke="#BEC0C2" stroke-width="2" stroke-miterlimit="10" stroke-linecap="round" stroke-linejoin="round"/>
<path d="M126.6 129.6C127.4 130.5 128.5 131.4 129.6 132" stroke="#BEC0C2" stroke-width="2" stroke-miterlimit="10" stroke-linecap="round" stroke-linejoin="round"/>
<path d="M156.1 149.2C156.1 149.5 156.2 149.8 156.2 150.1" stroke="#BEC0C2" stroke-width="2" stroke-miterlimit="10" stroke-linecap="round" stroke-linejoin="round"/>
<path d="M130 139.7C130.2 140 130.3 140.2 130.5 140.5" stroke="#BEC0C2" stroke-width="2" stroke-miterlimit="10" stroke-linecap="round" stroke-linejoin="round"/>
<path d="M162 157.1C162.6 157.9 163.3 158.7 163.9 159.6" stroke="#BEC0C2" stroke-width="2" stroke-miterlimit="10" stroke-linecap="round" stroke-linejoin="round"/>
<path d="M235 136C235.6 136.8 236.3 137.6 236.9 138.5" stroke="#BEC0C2" stroke-width="2" stroke-miterlimit="10" stroke-linecap="round" stroke-linejoin="round"/>
<path d="M183.2 136.6C183.8 137.4 184.5 138.2 185.1 139.1" stroke="#BEC0C2" stroke-width="2" stroke-miterlimit="10" stroke-linecap="round" stroke-linejoin="round"/>
<path d="M193.8 154.6C194.4 155.1 195 155.7 195.7 156.2" stroke="#BEC0C2" stroke-width="2" stroke-miterlimit="10" stroke-linecap="round" stroke-linejoin="round"/>
<path d="M185.2 151C185.1 151.8 185.1 152.6 185 153.5" stroke="#BEC0C2" stroke-width="2" stroke-miterlimit="10" stroke-linecap="round" stroke-linejoin="round"/>
<path d="M180.7 158.7C180.9 159.3 181.2 159.8 181.6 160.3" stroke="#BEC0C2" stroke-width="2" stroke-miterlimit="10" stroke-linecap="round" stroke-linejoin="round"/>
<path d="M181.9 164C182.5 164.9 183 165.8 183.3 166.8" stroke="#BEC0C2" stroke-width="2" stroke-miterlimit="10" stroke-linecap="round" stroke-linejoin="round"/>
<path d="M189.1 161.2C189.3 161.6 189.6 162 189.8 162.4" stroke="#BEC0C2" stroke-width="2" stroke-miterlimit="10" stroke-linecap="round" stroke-linejoin="round"/>
<path d="M191.7 159.6C191.7 160 192.1 160.4 192.5 160.5" stroke="#BEC0C2" stroke-width="2" stroke-miterlimit="10" stroke-linecap="round" stroke-linejoin="round"/>
<path d="M188.6 166.4C189.4 166.2 190.2 165.9 191 165.4" stroke="#BEC0C2" stroke-width="2" stroke-miterlimit="10" stroke-linecap="round" stroke-linejoin="round"/>
<path d="M200.4 165.9C200.5 166.4 201 166.8 201.5 166.8" stroke="#BEC0C2" stroke-width="2" stroke-miterlimit="10" stroke-linecap="round" stroke-linejoin="round"/>
<path d="M201.2 162.9C201.6 163.1 201.9 163.4 202.2 163.8" stroke="#BEC0C2" stroke-width="2" stroke-miterlimit="10" stroke-linecap="round" stroke-linejoin="round"/>
<path d="M195.2 165.9C195.4 166.6 195.8 167.3 196.2 167.9" stroke="#BEC0C2" stroke-width="2" stroke-miterlimit="10" stroke-linecap="round" stroke-linejoin="round"/>
<path d="M191.5 148.4C191.7 149.3 192.1 150.2 192.6 150.9" stroke="#BEC0C2" stroke-width="2" stroke-miterlimit="10" stroke-linecap="round" stroke-linejoin="round"/>
<path d="M180.8 141.4C181.1 142 181.5 142.5 181.8 143.1C181.9 143.3 182 143.5 182.2 143.5C182.4 143.5 182.6 143.4 182.8 143.3" stroke="#BEC0C2" stroke-width="2" stroke-miterlimit="10" stroke-linecap="round" stroke-linejoin="round"/>
<path d="M188.4 154C188.7 154.6 189.1 155.1 189.4 155.7C189.5 155.9 189.6 156.1 189.8 156.1C190 156.1 190.2 156 190.4 155.9" stroke="#BEC0C2" stroke-width="2" stroke-miterlimit="10" stroke-linecap="round" stroke-linejoin="round"/>
<path d="M208.7 162.1C209 162.6 209.5 163 210 163.4" stroke="#BEC0C2" stroke-width="2" stroke-miterlimit="10" stroke-linecap="round" stroke-linejoin="round"/>
<path d="M202.8 130C203.1 130.7 203.6 131.3 204.1 131.9" stroke="#BEC0C2" stroke-width="2" stroke-miterlimit="10" stroke-linecap="round" stroke-linejoin="round"/>
<path d="M175.2 144.6C175.3 145 175.5 145.3 175.8 145.5" stroke="#BEC0C2" stroke-width="2" stroke-miterlimit="10" stroke-linecap="round" stroke-linejoin="round"/>
<path d="M148.2 136.1C148.5 136.3 148.9 136.4 149.3 136.4" stroke="#BEC0C2" stroke-width="2" stroke-miterlimit="10" stroke-linecap="round" stroke-linejoin="round"/>
<path d="M201 153.1C201.1 153.5 201.3 153.8 201.6 154" stroke="#BEC0C2" stroke-width="2" stroke-miterlimit="10" stroke-linecap="round" stroke-linejoin="round"/>
<path d="M197.2 160.8C197.1 161.2 197.2 161.7 197.5 162" stroke="#BEC0C2" stroke-width="2" stroke-miterlimit="10" stroke-linecap="round" stroke-linejoin="round"/>
<path d="M199.8 156C199.7 156.4 199.8 156.9 200.1 157.2" stroke="#BEC0C2" stroke-width="2" stroke-miterlimit="10" stroke-linecap="round" stroke-linejoin="round"/>
<path d="M207.1 151.1C207 151.5 207.1 152 207.4 152.3" stroke="#BEC0C2" stroke-width="2" stroke-miterlimit="10" stroke-linecap="round" stroke-linejoin="round"/>
<path d="M206.9 164.3C207 164.4 207.1 164.6 207.2 164.7" stroke="#BEC0C2" stroke-width="2" stroke-miterlimit="10" stroke-linecap="round" stroke-linejoin="round"/>
<path d="M185.8 146C186.5 146.6 187.2 147.3 187.8 148.1" stroke="#BEC0C2" stroke-width="2" stroke-miterlimit="10" stroke-linecap="round" stroke-linejoin="round"/>
<path d="M203.4 159.5C203.5 159.8 203.5 160.2 203.6 160.5" stroke="#BEC0C2" stroke-width="2" stroke-miterlimit="10" stroke-linecap="round" stroke-linejoin="round"/>
<path d="M196.9 151.5C197 152 197.1 152.4 197.3 152.8" stroke="#BEC0C2" stroke-width="2" stroke-miterlimit="10" stroke-linecap="round" stroke-linejoin="round"/>
<path d="M213.3 159.3C213.5 159.6 213.7 159.8 213.9 160.1" stroke="#BEC0C2" stroke-width="2" stroke-miterlimit="10" stroke-linecap="round" stroke-linejoin="round"/>
<path d="M207.1 159.9C207.8 159.9 208.5 159.7 209 159.2" stroke="#BEC0C2" stroke-width="2" stroke-miterlimit="10" stroke-linecap="round" stroke-linejoin="round"/>
<path d="M214.4 147.6C214.7 148.2 215.2 148.7 215.9 149" stroke="#BEC0C2" stroke-width="2" stroke-miterlimit="10" stroke-linecap="round" stroke-linejoin="round"/>
<path d="M219.8 146.4C220.4 146 220.8 145.4 220.9 144.7" stroke="#BEC0C2" stroke-width="2" stroke-miterlimit="10" stroke-linecap="round" stroke-linejoin="round"/>
<path d="M222.2 134.2C222.5 134.8 223 135.3 223.7 135.6" stroke="#BEC0C2" stroke-width="2" stroke-miterlimit="10" stroke-linecap="round" stroke-linejoin="round"/>
<path d="M215.8 156.5C216 157.1 216.2 157.6 216.4 158.2" stroke="#BEC0C2" stroke-width="2" stroke-miterlimit="10" stroke-linecap="round" stroke-linejoin="round"/>
<path d="M219.8 156.1C219.9 156.4 220.1 156.7 220.3 156.9" stroke="#BEC0C2" stroke-width="2" stroke-miterlimit="10" stroke-linecap="round" stroke-linejoin="round"/>
<path d="M225.9 149.9C226.2 150.3 226.6 150.6 227 150.9" stroke="#BEC0C2" stroke-width="2" stroke-miterlimit="10" stroke-linecap="round" stroke-linejoin="round"/>
<path d="M222.8 148.3C222.9 148.4 222.9 148.5 223 148.6" stroke="#BEC0C2" stroke-width="2" stroke-miterlimit="10" stroke-linecap="round" stroke-linejoin="round"/>
<path d="M223.9 144.1C224 144.2 224 144.3 224.1 144.4" stroke="#BEC0C2" stroke-width="2" stroke-miterlimit="10" stroke-linecap="round" stroke-linejoin="round"/>
<path d="M178.1 155.2C178.1 155.4 178.1 155.6 178.2 155.8" stroke="#BEC0C2" stroke-width="2" stroke-miterlimit="10" stroke-linecap="round" stroke-linejoin="round"/>
<path d="M203.8 152.1C203.8 152.3 203.8 152.5 203.9 152.7" stroke="#BEC0C2" stroke-width="2" stroke-miterlimit="10" stroke-linecap="round" stroke-linejoin="round"/>
<path d="M152.9 148.9C153 149.5 153.2 150 153.3 150.6" stroke="#BEC0C2" stroke-width="2" stroke-miterlimit="10" stroke-linecap="round" stroke-linejoin="round"/>
<path d="M166.1 153C165.5 153.1 164.9 153.1 164.3 153.2" stroke="#BEC0C2" stroke-width="2" stroke-miterlimit="10" stroke-linecap="round" stroke-linejoin="round"/>
<path d="M155.6 154.8C155.9 155 156.3 155.2 156.6 155.3" stroke="#BEC0C2" stroke-width="2" stroke-miterlimit="10" stroke-linecap="round" stroke-linejoin="round"/>
<path d="M148.7 145.2C149 145.9 149.3 146.6 149.4 147.3" stroke="#BEC0C2" stroke-width="2" stroke-miterlimit="10" stroke-linecap="round" stroke-linejoin="round"/>
<path d="M159.2 152.7C159.4 153.3 159.4 153.9 159.2 154.4" stroke="#BEC0C2" stroke-width="2" stroke-miterlimit="10" stroke-linecap="round" stroke-linejoin="round"/>
<path d="M144.5 147.3C144.7 147.9 144.7 148.5 144.5 149" stroke="#BEC0C2" stroke-width="2" stroke-miterlimit="10" stroke-linecap="round" stroke-linejoin="round"/>
<path d="M155.6 139.7C155.3 140.2 154.8 140.6 154.3 140.8" stroke="#BEC0C2" stroke-width="2" stroke-miterlimit="10" stroke-linecap="round" stroke-linejoin="round"/>
<path d="M171 154.2C171.2 154.8 171.2 155.4 171 155.9" stroke="#BEC0C2" stroke-width="2" stroke-miterlimit="10" stroke-linecap="round" stroke-linejoin="round"/>
<path d="M176 150.4C175.9 150.8 175.8 151.3 175.7 151.7" stroke="#BEC0C2" stroke-width="2" stroke-miterlimit="10" stroke-linecap="round" stroke-linejoin="round"/>
<path d="M177.7 164.1C177.7 164.7 178.2 165.3 178.7 165.4" stroke="#BEC0C2" stroke-width="2" stroke-miterlimit="10" stroke-linecap="round" stroke-linejoin="round"/>
<path d="M184.8 161.2C184.8 161.6 184.9 162.1 185.1 162.5" stroke="#BEC0C2" stroke-width="2" stroke-miterlimit="10" stroke-linecap="round" stroke-linejoin="round"/>
<path d="M229.4 145.3C229.5 145.8 229.7 146.2 229.8 146.7" stroke="#BEC0C2" stroke-width="2" stroke-miterlimit="10" stroke-linecap="round" stroke-linejoin="round"/>
<path d="M226.7 146.2C226.6 146.6 226.5 147 226.5 147.3" stroke="#BEC0C2" stroke-width="2" stroke-miterlimit="10" stroke-linecap="round" stroke-linejoin="round"/>
<path d="M223 138.3C223 138.7 223.1 139.2 223.1 139.6" stroke="#BEC0C2" stroke-width="2" stroke-miterlimit="10" stroke-linecap="round" stroke-linejoin="round"/>
<path d="M171.3 140C171.2 140.6 171.2 141.1 171.1 141.7" stroke="#BEC0C2" stroke-width="2" stroke-miterlimit="10" stroke-linecap="round" stroke-linejoin="round"/>
<path d="M163 142C162.9 142.6 162.9 143.1 162.8 143.7" stroke="#BEC0C2" stroke-width="2" stroke-miterlimit="10" stroke-linecap="round" stroke-linejoin="round"/>
<path d="M222.9 153.7C222.9 154.3 223 154.8 223.1 155.3" stroke="#BEC0C2" stroke-width="2" stroke-miterlimit="10" stroke-linecap="round" stroke-linejoin="round"/>
<path d="M226.4 133.6C226.4 134.2 226.5 134.7 226.6 135.2" stroke="#BEC0C2" stroke-width="2" stroke-miterlimit="10" stroke-linecap="round" stroke-linejoin="round"/>
<path d="M233.5 140.2C233.7 140.9 233.8 141.7 234 142.4" stroke="#BEC0C2" stroke-width="2" stroke-miterlimit="10" stroke-linecap="round" stroke-linejoin="round"/>
<path d="M198 127.9C198 128.9 198.1 129.8 198.1 130.8" stroke="#BEC0C2" stroke-width="2" stroke-miterlimit="10" stroke-linecap="round" stroke-linejoin="round"/>
<path d="M231.2 141.8C231 142 230.9 142.3 231.1 142.5" stroke="#BEC0C2" stroke-width="2" stroke-miterlimit="10" stroke-linecap="round" stroke-linejoin="round"/>
<path d="M224.6 128.3C224.6 128.7 224.6 129.2 224.6 129.6" stroke="#BEC0C2" stroke-width="2" stroke-miterlimit="10" stroke-linecap="round" stroke-linejoin="round"/>
<path d="M161.9 150.3C161.8 150.5 161.9 150.8 162.1 151" stroke="#BEC0C2" stroke-width="2" stroke-miterlimit="10" stroke-linecap="round" stroke-linejoin="round"/>
<path d="M165.9 148.3C165.9 148.8 165.9 149.4 166.1 149.9" stroke="#BEC0C2" stroke-width="2" stroke-miterlimit="10" stroke-linecap="round" stroke-linejoin="round"/>
<path d="M132.3 128.6C132.7 128.9 133.2 129.1 133.8 129.2" stroke="#BEC0C2" stroke-width="2" stroke-miterlimit="10" stroke-linecap="round" stroke-linejoin="round"/>
<path d="M174.2 157.4C174.5 158 174.9 158.6 175.2 159.2" stroke="#BEC0C2" stroke-width="2" stroke-miterlimit="10" stroke-linecap="round" stroke-linejoin="round"/>
<path d="M159.2 146.5C159.2 146.9 159.2 147.3 159.2 147.7" stroke="#BEC0C2" stroke-width="2" stroke-miterlimit="10" stroke-linecap="round" stroke-linejoin="round"/>
<path d="M139.4 140.1C139.4 140.5 139.4 140.9 139.4 141.3" stroke="#BEC0C2" stroke-width="2" stroke-miterlimit="10" stroke-linecap="round" stroke-linejoin="round"/>
<path d="M158.2 143C158.2 143.2 158.2 143.3 158.2 143.5" stroke="#BEC0C2" stroke-width="2" stroke-miterlimit="10" stroke-linecap="round" stroke-linejoin="round"/>
<path d="M151 140.5C151 140.7 151 140.8 151 141" stroke="#BEC0C2" stroke-width="2" stroke-miterlimit="10" stroke-linecap="round" stroke-linejoin="round"/>
<path d="M154.4 144.3C154.5 144.5 154.5 144.7 154.6 144.8" stroke="#BEC0C2" stroke-width="2" stroke-miterlimit="10" stroke-linecap="round" stroke-linejoin="round"/>
<path d="M147.9 151.2C148.1 151.5 148.9 152.1 149.3 152.3C149.7 152.5 150 152.6 150.4 152.8" stroke="#BEC0C2" stroke-width="2" stroke-miterlimit="10" stroke-linecap="round" stroke-linejoin="round"/>
<path d="M180.1 151.5C180.2 152 180.6 152.5 181.2 152.6" stroke="#BEC0C2" stroke-width="2" stroke-miterlimit="10" stroke-linecap="round" stroke-linejoin="round"/>
<path d="M154.5 134.7C154.6 135.2 155 135.7 155.6 135.8" stroke="#BEC0C2" stroke-width="2" stroke-miterlimit="10" stroke-linecap="round" stroke-linejoin="round"/>
<path d="M185.7 157.2C186.1 157.7 186.4 158.1 186.8 158.6" stroke="#BEC0C2" stroke-width="2" stroke-miterlimit="10" stroke-linecap="round" stroke-linejoin="round"/>
<path d="M166.6 156.6C166.6 157.1 166.8 157.5 167.1 157.9" stroke="#BEC0C2" stroke-width="2" stroke-miterlimit="10" stroke-linecap="round" stroke-linejoin="round"/>
<path d="M126.1 134.4C126.1 134.9 126.3 135.3 126.6 135.7" stroke="#BEC0C2" stroke-width="2" stroke-miterlimit="10" stroke-linecap="round" stroke-linejoin="round"/>
<path d="M170.2 161.3C170.3 161.9 170.8 162.3 171.3 162.6C171.8 162.9 172.4 162.9 173 163" stroke="#BEC0C2" stroke-width="2" stroke-miterlimit="10" stroke-linecap="round" stroke-linejoin="round"/>
<path d="M221.1 150.1C221.1 150.7 221.2 151.3 221.2 151.8" stroke="#BEC0C2" stroke-width="2" stroke-miterlimit="10" stroke-linecap="round" stroke-linejoin="round"/>
<path d="M218.1 151.1C218.4 151.5 218.5 152 218.4 152.5" stroke="#BEC0C2" stroke-width="2" stroke-miterlimit="10" stroke-linecap="round" stroke-linejoin="round"/>
<path d="M214 152.8C213.9 153.7 213.4 154.5 212.6 155" stroke="#BEC0C2" stroke-width="2" stroke-miterlimit="10" stroke-linecap="round" stroke-linejoin="round"/>
<path d="M211.2 149.3C211.7 150 211.9 151 211.5 151.9" stroke="#BEC0C2" stroke-width="2" stroke-miterlimit="10" stroke-linecap="round" stroke-linejoin="round"/>
<path d="M179.5 145.5C180 146.2 180.2 147.2 179.8 148.1" stroke="#BEC0C2" stroke-width="2" stroke-miterlimit="10" stroke-linecap="round" stroke-linejoin="round"/>
<path d="M167.7 144C167 143.4 166.7 142.5 166.8 141.6" stroke="#BEC0C2" stroke-width="2" stroke-miterlimit="10" stroke-linecap="round" stroke-linejoin="round"/>
<path d="M164 133.3C163.5 134 162.6 134.5 161.7 134.4" stroke="#BEC0C2" stroke-width="2" stroke-miterlimit="10" stroke-linecap="round" stroke-linejoin="round"/>
<path d="M209.2 155.4C209.3 155.7 209.5 156 209.6 156.3" stroke="#BEC0C2" stroke-width="2" stroke-miterlimit="10" stroke-linecap="round" stroke-linejoin="round"/>
<path d="M205.3 155.2C205.4 155.6 205.5 156 205.7 156.3" stroke="#BEC0C2" stroke-width="2" stroke-miterlimit="10" stroke-linecap="round" stroke-linejoin="round"/>
<path d="M227 141.3C227 141.5 227.1 141.7 227.1 141.9" stroke="#BEC0C2" stroke-width="2" stroke-miterlimit="10" stroke-linecap="round" stroke-linejoin="round"/>
<path d="M229 138C229.1 138.3 229.1 138.6 229.2 138.9" stroke="#BEC0C2" stroke-width="2" stroke-miterlimit="10" stroke-linecap="round" stroke-linejoin="round"/>
<path d="M231.4 134.9C231.5 135.1 231.6 135.3 231.5 135.5" stroke="#BEC0C2" stroke-width="2" stroke-miterlimit="10" stroke-linecap="round" stroke-linejoin="round"/>
<path d="M228.9 131.1C229 131.5 229.1 132 229.4 132.3" stroke="#BEC0C2" stroke-width="2" stroke-miterlimit="10" stroke-linecap="round" stroke-linejoin="round"/>
<path d="M234.7 130.9C234.5 131.4 234.6 131.9 234.8 132.3" stroke="#BEC0C2" stroke-width="2" stroke-miterlimit="10" stroke-linecap="round" stroke-linejoin="round"/>
<path d="M230.2 9.7C232.8 12.7 234.6 18.5 234.4 22.9C234.2 27.3 233.7 25.1 232.7 31.4C232.5 33 232 34.5 230.6 35.3C232.8 39.6 234.9 44.2 236.1 48.7C239 59.7 239.6 66.9 240.7 78.2C241.6 87.3 241.6 96.4 242.1 105.5C242.4 110.8 242 118.4 241.6 123.7C240.5 137.7 234.6 148.9 225.9 160.9C216.6 170.8 214.1 170 205.7 172.8C205.4 172.9 205.1 173 204.7 173.2C204.8 176.2 205.9 178.8 207.9 181C208.3 181.5 208.7 181.9 209.2 182.3C210.4 183.4 210.5 184.3 209.7 185.4C208.9 186.4 207.5 186.6 206.4 185.9C205.7 185.4 205 184.8 204.5 184.1C202 181.4 200.7 178.1 200.2 174.3C198.4 174.5 196.6 174.8 194.8 174.9C185.2 175.7 176 174.3 167.6 169.2C167 168.8 166.4 168.4 165.8 167.9C165 167.2 164.6 166.3 165.2 165.3C165.8 164.3 166.8 163.8 167.9 164.2C169.2 164.6 170.4 165.2 171.6 165.8C179.4 169.6 187.6 171.3 196.2 170.3C206.3 169.2 213 168.6 221.3 160.2C229.7 151.8 238 135.8 238 120.3C238 113.1 238.4 103.5 237.9 96.3C237.3 88.4 237.2 80.5 236.4 72.6C234.9 59.2 232.6 50.1 229 37.1C228.9 36.8 228.6 36.2 228.3 36.2C226.3 36 225.3 34.8 225.2 32.8C224.5 32.7 223.9 32.7 223.4 32.6C217.8 32.4 213.8 33.3 208.3 33.2C203.4 33.2 196.9 32.3 192 32.5C187.4 32.7 183.6 31.9 179 32.3C175.5 32.6 171.3 34 167.9 34.4C164 34.9 159.7 36.6 155.8 37.3C151.1 38.2 147.7 40.7 143 41.9C141.2 42.3 139.5 42.8 137.8 43.3C135.6 44 134.6 45.7 134.6 48C134.6 49.6 134.6 51.2 135.7 52.7C136.1 53.2 136.1 53.2 137.2 55.6C138.4 58.3 137.8 60.7 135 61.9C133.7 62.5 132.2 62.8 130.7 63.1C128.4 63.6 126.9 64.9 126.1 67.1C124.9 70.3 124.8 73.7 124.8 77.1C124.8 82.3 124.9 87.5 125 92.7C125 94 124.9 95.3 124.5 96.5C124 98.1 122.5 98.4 121.1 97.5C120.3 97 119.5 96.4 118.7 95.9C116.1 94.3 112.2 94.9 109.4 97.4C107.3 99.3 106.3 101.7 106 104.4C105.4 109.5 105.6 114.6 107.9 119.4C108.9 121.4 110.4 122.7 112.8 122.7C113.9 122.7 115 122.9 116.1 123.2C116.6 123.4 117.2 123.9 117.4 124.4C118 125.7 118.3 127.1 119 128.3C124.1 137.1 130.6 144.7 138.7 150.8C139.9 151.7 141.3 152.3 142.8 152.8C144.9 153.5 145.6 155.6 144.1 157.3C142.6 159 140.5 158.9 138.4 157.9C137.8 157.6 137.3 157.3 136.8 157C126.7 149.9 120.1 140.4 117.3 128.3C117.2 127.8 117.1 127.4 116.9 126.7C114.9 129.8 112 129.6 109.2 128.7C105.8 127.7 103.3 125.4 102 122.2C99.5 115.8 99 109.2 100.6 102.5C101.5 99 102.8 97.2 105.7 94.5C104.9 91.3 104 88.3 103.5 85.2C102.9 81.6 103.6 79.4 103.8 75.8C103.9 73.9 103.2 70.5 103.4 68.7C104.2 62.3 105.3 56.5 106.1 50.1C106.8 44.8 108.2 43 108.9 37.7C109.3 34.8 110.3 34 110.7 31.1C111 28.6 110.9 26 111.5 23.6C112.3 20.5 114.5 16.7 115.9 13.7C118 9.6 118.2 9.2 121.5 7C124.8 4.8 128.8 3.5 133.4 3.3C137 3.1 141 2.5 145 2.8C149.6 3.2 154.2 2.5 158.4 2.6C162.8 2.7 168.2 0.5 173.8 3.8743e-07C178.5 -0.4 183.4 1 188.1 0.6C193.2 0.2 198.1 -0.0999996 202.1 3.8743e-07C212.3 0.2 215 4.2 218.1 3.8C222.9 3.2 227.3 6.4 230.2 9.7Z" fill="black"/>
<path d="M4.7 385.3C4.7 391.6 5.1 397.9 5.8 404.1C6.8 413.2 11.7 418.2 22.2 419.5C30.4 420.5 38.1 418.6 45.6 415.7C55.6 411.8 65.2 407.1 74.8 402.1C91.2 393.5 107 383.9 122.2 373.3C122.3 373.2 122.4 373.1 122.3 373.2C122.2 372.2 122.2 371.3 122.1 370.4C122.1 370.2 121.9 369.9 121.7 369.7C117.3 365.1 115.7 359.4 115.9 353.3C116 347.4 117 341.6 117.5 335.7C117.6 334.4 117.8 333.2 118 331.6C93.6 344.6 68.7 355.6 42 361.8C41.9 361.6 41.8 361.3 41.7 361.1C44.9 359.8 48.2 358.4 51.4 357.1C54.7 355.8 58 354.5 61.6 353.1C54.3 350.5 47 348.7 40.1 345.9C43.4 345.3 46.4 346.2 49.6 346.7C52.7 347.3 55.8 347.9 58.7 348.4C59.5 347.5 60.2 346.7 60.9 346C63.9 343.3 65.1 339.8 65.6 336C66.2 330.9 66.5 325.8 67 320.7C68 311.6 69.1 302.6 70.1 293.6C70.2 293.2 70.3 292.7 70.4 292.3C70.5 292.3 70.7 292.3 70.8 292.3C70.9 292.8 71.1 293.2 71.1 293.7C70.9 300.3 70.7 306.9 70.5 313.5C70.3 319 70.1 324.6 69.7 330.1C69.5 333.7 69.2 337.3 68.4 340.7C67.9 343.1 66.6 345.3 65.6 347.6C67.2 347.5 67.5 349 68 350.4C71.6 348.8 75.1 347.3 78.6 345.8C91.4 340.2 103.8 333.9 116 327C117.2 326.3 118.3 326 119.4 327.1C119.6 327.3 120.1 327.3 120.4 327.2C122 326.7 123.5 327.1 124.7 328C125.4 328.5 125.9 328.4 126.6 328.1C130.2 326.3 132.9 323.5 135.2 320.3C138.1 316.3 140.6 312.1 143.4 308C145.7 304.6 148 301.2 150.6 298.1C155.2 292.7 161.2 289.5 167.9 287.4C169.5 286.9 170.8 286 171.8 284.5C173.3 282.4 175 280.5 176.8 278.7C179.3 276.2 182.4 275.6 185.7 276.5C190 277.8 194.2 279.2 198.4 280.6C200.2 281.2 201.1 282.6 201 284.7C203.1 284.3 205 283.9 207 283.6C217.5 281.9 228 282.5 238.3 284.6C241.9 285.3 245.5 286.4 249.1 287.3C250.1 287.5 250.6 288.1 250.8 289.1C253.8 305.1 253.9 320.9 248 336.3C245.8 342.1 242.9 347.6 238.6 352.1C235 355.9 230.6 357.7 225.5 357.5C220.7 357.4 215.8 357.1 211 356.8C208.1 356.6 205.2 356.4 202.3 355.9C197.1 355 193.5 351.9 191.4 347.1C190.5 345.2 189.9 343.1 189.1 341.1C187.1 341.5 185.5 342.5 184.1 343.9C182.6 345.3 181.2 346.8 179.9 348.4C175.2 354.5 169 358.4 161.7 360.4C155.5 362.1 149.1 363.4 142.9 364.9C138.6 365.9 134.5 367.1 130.6 369.3C129.4 370 128.8 371.6 129.1 372.9C129.3 373.7 129.2 374.8 128.7 375.3C127.2 376.9 125.7 378.6 123.9 379.9C109.5 389.6 94.6 398.5 79.1 406.3C72.3 409.8 65.4 413.1 58.4 416.5C58.7 419.9 59 423.5 59.3 427C59.5 428.8 58.5 430.4 56.8 430.7C55.4 431 53.8 430 53.4 428.4C53.3 427.8 53.4 427.1 53.5 426.5C54.2 423.7 55 420.8 55.7 418C55.7 417.9 55.7 417.7 55.6 417.5C53.3 418.5 51 419.4 48.8 420.3C42 423 35 425.1 27.6 425.3C20.6 425.5 13.9 424.3 8 420.1C3.2 416.6 0.999998 411.7 0.0999979 406C-1 398.7 -0.800002 391.3 -0.300002 384C0.199998 376.7 2.6 356.3 2.9 353.7C7.1 317.9 15.1 284 29.4 250.7C34.5 238.8 40.6 227.4 48.6 217.2C55.7 208.1 64 201.5 74.8 197.8C83.1 194.9 91.6 193.5 100.3 192.5C104.6 192 108.9 191.1 113 189.5C113.2 189.4 113.3 189.3 113.5 189.2C112.9 187.1 113.9 185.8 115.6 184.5C119.2 181.7 122.7 178.7 126.3 175.7C126.6 175.5 126.7 175.2 127 175.1C127.5 174.9 128 174.9 128.5 174.8C128.6 175.3 128.9 176 128.7 176.4C127.1 179 125.5 181.5 123.8 184C123 185.1 122 186.1 121 187.3C121.6 187.8 122.2 188.3 122.7 188.9C126.1 193 129.6 197.1 133 201.2C136.4 205.3 139.7 209.7 144.4 212.4C147.2 214 150.3 215.2 153.4 216.5C156.2 217.7 159.1 218.9 161.4 221C162.4 221.9 163.2 223 164 224.1C164.2 224.4 164.2 225.1 164 225.3C163.8 225.5 163.1 225.7 162.8 225.5C158.6 223.1 153.9 222.3 149.4 220.8C141.8 218.4 135.9 213.5 130.8 207.5C126.8 202.8 122.8 198.2 118.7 193.7C117.5 192.3 116 191.2 114.6 189.9C106.8 195.1 97.7 196.5 89 198.9C80 201.4 71.4 204.9 63.6 210.1C57.4 214.3 52.9 220 48.8 226.2C40.7 238.4 35 251.7 30.1 265.5C24.1 283 19 300.9 15.2 319.2C12.9 330 10 340 9 350.9C8.8 353.4 8.2 355.9 7.8 358.5C7.4 360.1 4.7 377.6 4.7 385.3ZM180.2 316.7C180.2 316.5 180.2 316.3 180.2 316.1C181.4 315.7 182.6 315.2 183.9 315C188.1 314.3 192.4 313.7 196.6 313C197.1 312.9 197.8 312.5 198.1 312C199.8 309 198.9 305 196 303.1C195.6 302.8 195.1 302.6 194.6 302.6C193.4 302.5 192.1 302.6 190.9 302.6C188.1 302.6 185.2 302.6 182.4 302.6C180.6 302.6 178.9 302.8 177.1 302.8C176.7 302.8 176.3 302.4 175.9 302.3C176.2 302 176.3 301.4 176.7 301.3C178.8 300.5 180.8 299.7 183 299.1C185.4 298.4 188 299 190.1 297.3C190.2 297.2 190.5 297.2 190.6 297.2C192.1 296.9 192.6 296.4 192.7 294.9C193 292.1 191.2 290.1 187.8 289.8C182.5 289.3 177.4 290.3 172.4 291.6C165.8 293.4 159.9 296.3 155.3 301.5C151.6 305.6 148.8 310.2 145.9 314.8C142.8 319.7 139.5 324.3 134.4 327.3C130.8 329.4 127 330.9 123.1 332.1C122.4 332.3 121.6 332.2 120.8 332.3C120.8 333.6 120.8 334.8 120.8 335.9C120.8 341.6 120.7 347.3 121 353C121.2 357.6 122.7 361.8 126.5 364.9C127.3 365.6 127.9 365.7 128.9 365.2C131.2 364 133.5 362.8 136 362.1C142.3 360.3 148.6 358.8 154.9 357.4C164.2 355.3 172.4 351.6 178.2 343.6C181.2 339.5 185.3 336.8 190.5 335.8C191.8 335.5 193.1 334.9 194.3 334.2C195.8 333.3 196.1 331.9 196.1 330.4C192.8 330 189.6 329.5 186.4 329.1C186.4 328.9 186.4 328.6 186.4 328.4C189.8 328 193.1 327.6 196.5 327.2C197.5 325.4 198.6 323.6 199.6 321.7C200 321 200.2 320.1 200.3 319.3C200.3 318.5 200 317.7 198.8 317.8C198.3 317.9 197.7 317.4 197.2 317.2C196.8 317 196.3 316.8 195.8 316.8C191.9 316.9 188.1 317.1 184.2 317.2C182.7 317.1 181.5 316.9 180.2 316.7ZM196.3 289.4C197.9 292.2 197.9 295 196.9 298C200 299.4 202.3 301.6 203.4 304.8C204.5 308 204.1 311.1 202.7 314.1C204.4 316 205.4 318.2 204.8 320.7C204.5 322.1 203.9 323.5 203.1 324.8C201.9 326.8 201 328.8 200.8 331.2C200.5 334.9 198.7 337.6 195.4 339.2C195.1 339.3 194.9 340 195 340.4C195.4 341.9 195.9 343.4 196.5 344.9C197.9 348.5 200.6 350.8 204.5 351.1C211.9 351.7 219.3 352.1 226.6 352.3C228.6 352.4 230.9 351.8 232.6 350.7C234.8 349.4 236.6 347.4 238.3 345.4C241.8 341.1 244 336.1 245.8 330.9C250.1 318 250.1 304.9 248.1 291.6C248 291.2 247.5 290.6 247 290.4C232.4 285.6 217.3 284.5 202.1 285.3C201.8 285.3 201.3 285.5 201.2 285.7C200.2 287.7 198.5 288.8 196.3 289.4ZM175.4 285.4C181.7 284.7 188 283.1 194 286.8C194.6 286.2 195.1 285.6 195.8 284.8C192.8 283.7 189.9 282.9 187.2 281.7C183.5 280 180.4 280.8 177.6 283.5C176.9 284.2 176.1 284.8 175.4 285.4Z" fill="black"/>
<path d="M222.3 199.9C223.6 200.2 224.9 200.5 226.2 200.8C233.7 202.6 241 204.7 247.9 208.1C258.6 213.3 266.4 221.6 272.1 231.8C277.1 240.7 280.2 250.2 282.4 260.1C285.6 275.2 288.6 290.3 291.7 305.4C294.3 318 297 330.6 299.3 343.2C301.7 356.2 303.7 369.2 305.6 382.3C307.1 392.7 307.7 403.1 307.2 413.6C307 418.1 306.5 422.5 306 426.9C305.8 428.8 304.6 429.7 302.9 429.5C301 429.3 299.9 428 300.1 426.1C301.3 411 301.1 395.9 299.5 380.8C298.3 368.6 296 356.6 293.7 344.6C290.6 328.6 287.7 312.5 284.6 296.5C281.8 282.1 279.2 267.5 275.1 253.4C272.4 244.1 268.7 235.3 263 227.4C257.4 219.6 250 213.7 241.5 209.4C235.6 206.4 229.5 203.9 223.5 201.1C223 200.9 222.5 200.5 221.9 200.3C222.1 200.3 222.2 200.1 222.3 199.9Z" fill="black"/>
<path d="M130.1 175.2C132.4 176.5 134.6 177.8 137 179.1C138.5 176.7 139.6 174 140 171.3C140.4 168.7 140.5 165.9 140.6 163.3C140.7 161.5 141.2 160.6 142.5 160.5C144 160.4 145.1 161.4 145.2 163.2C145.5 168.9 144.5 174.3 142 179.4C141.7 180.1 141.4 180.7 141 181.5C142.7 182.3 144.3 183.2 146 183.9C149.9 185.4 153.8 187 157.8 188.1C163.2 189.6 165.9 192.1 165.3 199.3C165 202.2 164.5 205.1 164 208C163.4 211.5 164.6 214.4 167.1 216.8C168.6 218.2 170.1 219.6 171.6 221C172.8 222.2 174 223.6 175.1 224.9C176.6 222.7 178.3 220.6 179.7 218.3C180 217.8 180 216.7 179.6 216.1C176.5 211.6 178.1 207.2 182 204.4C184.7 202.5 187.6 200.9 190.4 199.2C197.2 195.2 203.5 190.7 209.4 185.6C209.6 185.4 209.8 185.3 210.2 185.2C210 185.5 209.9 185.8 209.7 186.1C204.1 194.4 197.1 201.2 188.6 206.5C187.1 207.4 185.6 208.4 184.3 209.6C183.1 210.7 183.1 211.5 184 212.9C186.1 216.1 186 218.8 183.8 221.9C182.7 223.4 181.5 224.9 180.6 226.6C178 231.2 177.9 236.3 179.1 241.2C180.3 246.4 182.2 251.4 183.8 256.5C184.9 260.1 186.2 263.7 187.1 267.4C187.5 269.1 187.2 270.9 187.1 272.6C187 273.5 186.8 274.4 185.6 274.5C184.5 274.6 184.1 273.8 183.8 273C182.9 270.7 182.1 268.3 181.3 265.9C179.6 260.9 177.9 255.9 176.2 250.9C174.1 244.9 172.5 238.9 173.1 232.5C173.1 232.1 172.9 231.7 172.8 231.3C171.4 227.7 169.3 224.7 166.3 222.2C165.7 221.7 165.2 221.2 164.7 220.7C159.9 216.6 158.6 211.4 159.5 205.4C159.9 202.5 160.3 199.5 160.5 196.5C160.7 193.8 160 193.1 157.4 192.4C148.2 189.7 140 185.1 132.8 178.9C131.7 177.9 130.7 176.7 129.7 175.6C129.8 175.6 130 175.4 130.1 175.2Z" fill="black"/>
<path d="M268.2 300.8C268.1 301.4 268 301.9 267.9 302.4C266.1 311.4 264.1 320.3 262.6 329.3C261.2 337.7 260.9 346.1 261 354.6C261.1 370.9 261.4 387.2 261.6 403.6C261.6 406.7 261.9 409.7 261.8 412.8C261.8 415.3 261.4 417.8 261.3 420.3C261.1 423.2 261.1 426 260.9 428.9C260.9 429.4 260.5 430.1 260.2 430.3C259.4 430.6 259.1 430 258.9 429.2C258 424.4 256.9 419.7 256.2 414.9C255.6 410.8 255.3 406.7 255.2 402.5C254.9 390.9 254.6 379.3 254.7 367.8C254.8 354.8 255.6 341.9 257.6 329C259.1 319.6 261.7 310.6 266.7 302.4C267 301.9 267.4 301.4 267.7 300.9C267.7 300.8 267.9 300.8 268.2 300.8Z" fill="black"/>
<path d="M190 384.7C189.6 391.8 189.4 398.8 188.9 405.7C188.7 408.4 187.6 411.1 186.9 413.8C186.7 414.6 186.1 415.3 185.1 415.2C184 415.1 183.5 414.4 183.4 413.5C183.1 410.8 182.6 408 182.8 405.3C183.1 398.9 183.7 392.5 184.1 386.1C184.5 379.6 184.8 373.2 185.1 366.7C185.3 363.9 185.4 361 185.7 358.2C185.7 357.7 185.9 357.1 186.1 356.6C186.3 356.2 186.7 356 187 355.7C187.3 356 187.8 356.3 187.9 356.6C188.3 358.8 188.9 361 189 363.2C189.3 370.4 189.6 377.6 190 384.7Z" fill="black"/>
<path d="M185.2 221.9C186.2 220.8 187.3 220.7 188.4 221.2C189.5 221.6 190.5 222.2 191.5 222.7C196.2 225.3 201.2 224.6 204.5 220.4C208.6 215.3 212.2 209.8 215 203.8C215.9 201.9 216.3 199.7 216.9 197.7C217.3 196.5 217.9 195.6 219.2 195.4C220.9 195.1 222.2 196 222 197.7C221.9 199.2 221.5 200.6 221 202C218 210.3 212.9 217.2 206.7 223.4C202.9 227.2 198.1 228.1 193.1 226.2C191.8 225.7 190.7 224.7 189.5 223.8C188.4 222.8 187.2 221.5 185.2 221.9Z" fill="black"/>
<path d="M203.6 146.1C199.3 145.9 195.2 143.8 192.1 139.9C191.2 138.8 191.2 137.5 191.9 136.3C192.6 135.1 194 134.4 195.2 134.8C196 135.1 196.9 135.8 197.5 136.5C199.7 139.2 202.5 140.6 206 140.3C208.2 140.1 210 139.2 211.6 137.8C212.6 136.9 213.5 135.9 214.6 135.1C215.1 134.7 215.9 134.4 216.5 134.5C217.4 134.7 217.5 135.6 217.4 136.4C217 138.7 215.9 140.6 214.3 142.2C211.4 144.7 208.1 146.1 203.6 146.1Z" fill="black"/>
<path d="M207.6 123.4C204.2 123.3 200.8 121.4 197.6 119C196.6 118.2 196.7 116.6 197.6 115.5C198.5 114.4 199.6 114.2 200.8 115C202.2 116 203.6 117 205.1 117.9C206 118.4 207.2 118.8 208.2 119C212 119.5 214.5 116.3 213.3 112.6C212.5 110.3 210.9 108.8 209 107.5C208.4 107.1 207.6 106.7 208 105.8C208.4 104.9 209.2 104.9 210 105C214.6 105.8 217.9 109.9 217.5 114.4C217.1 119.9 213.4 123.5 207.6 123.4Z" fill="black"/>
<path d="M85.6 292C86.5 291.8 87.3 291.5 88.2 291.3C93 290.6 97.8 290.1 102.6 289.3C110.9 287.9 119.3 286.4 127.6 285C128.7 284.8 129.8 284.8 130.9 284.9C131.3 284.9 132 285.5 132 285.9C132 286.4 131.7 287.1 131.3 287.4C130.4 287.9 129.3 288.3 128.3 288.5C120.3 289.7 112.3 291 104.3 292C99 292.6 93.6 292.7 88.3 293C87.5 293 86.6 292.8 85.8 292.7C85.7 292.4 85.6 292.2 85.6 292Z" fill="black"/>
<path d="M161.1 79.6C161.5 78.9 161.7 78.4 162.1 77.9C167.1 72.2 173.4 69.5 180.9 69.2C182.3 69.1 183.8 69.3 185.1 69.7C185.9 69.9 186.6 70.6 187 71.3C188 72.9 187.3 74.5 185.5 75C184.6 75.3 183.5 75.4 182.6 75.2C175.7 74 169.3 75.6 163.3 78.8C162.8 79.1 162.3 79.3 161.8 79.5C161.8 79.7 161.7 79.7 161.1 79.6Z" fill="black"/>
<path d="M15.7 380.2C14.7 379.9 14.2 379 14.7 377.9C15.2 376.5 15.9 375.2 16.7 373.9C20.3 368.4 24.8 363.6 29.6 359.2C30.7 358.2 32 357.3 33.7 357.3C35.3 357.3 36.1 358.4 35.5 359.8C34.9 361 34.1 362.1 33 362.9C27.2 367.3 22.3 372.6 17.3 377.9C16.6 378.5 16.3 379.4 15.7 380.2Z" fill="black"/>
<path d="M212.4 72.2C212.2 70.5 213.2 68.7 214.8 68.6C221.2 68.2 227.5 68.5 232.9 72.5C233.5 72.9 234.1 73.5 234.5 74C234.8 74.4 235 75 234.9 75.5C234.9 75.7 234 75.9 233.6 75.9C232.4 75.7 231.1 75.5 229.9 75.2C225.7 74.1 221.5 73.9 217.2 74.2C216.2 74.3 215 74.3 214.1 73.9C213.3 73.7 212.9 72.8 212.4 72.2Z" fill="black"/>
<path d="M173.2 94.9C173.4 93.2 173.6 91.5 173.9 89.7C174.3 87.8 176.7 86.5 179 87C180.4 87.3 181.2 88.1 181.4 89.3C182 92.5 181.3 95.5 179.6 98.3C179 99.3 178.1 100 176.7 99.9C175.3 99.9 174 99 173.7 97.8C173.4 96.9 173.4 95.9 173.2 94.9Z" fill="black"/>
<path d="M227.8 92.7C227.3 94.3 226.9 96.1 226.3 97.9C225.9 99.2 224.8 99.8 223.4 99.9C222.1 100 221.2 99.3 220.5 98.3C219.4 96.5 218.9 94.5 219 92.3C219.2 90.2 220.4 88.8 221.9 87.6C223.5 86.3 226.2 87.4 227 89.5C227.4 90.4 227.5 91.4 227.8 92.7Z" fill="black"/>
<path d="M109.1 107C111 105.7 113.2 105.5 115.3 106C118.5 106.7 120.8 108.7 122.3 111.5C123.2 113.1 122.5 114.9 120.8 115.6C119 116.4 117.2 115.9 116.7 114.1C115.5 110.3 113 108 109.1 107Z" fill="black"/>
<path d="M210.2 182.8C211 183.4 211.8 184 212.6 184.6C215.4 186.9 218.2 189.2 221 191.5C222 192.3 222.5 193.1 222.2 194.4C221.7 196.1 219.8 196.7 218.6 195.6C215.2 192.5 212.3 189.1 210.4 184.8C210.2 184.3 210.1 183.7 209.9 183.1C210 183 210.1 182.9 210.2 182.8Z" fill="black"/>
<path d="M160.9 324.9C161 323.1 160.5 321.6 159.5 320C158.1 317.8 157.6 315.4 158.5 312.8C159 311.4 159.3 310.1 158.8 308.6C158.5 307.7 159.2 307.6 159.9 307.8C161.3 308.2 162.3 309.2 162.4 310.5C162.8 314 164.1 317.2 165.9 320.2C166.4 321 166.5 322.1 166.7 323.1C167 324.8 167.1 326.6 167.4 328.3C167.6 329.4 167.6 330.5 166.6 331.2C165.7 331.8 164.1 331.6 163.1 330.8C161.9 329.8 161.3 328.5 161.1 326.9C160.8 326.4 160.9 325.6 160.9 324.9Z" fill="black"/>
<path d="M232.923 272C232.923 269.223 232.889 265.938 230.627 263.806C229.4 262.65 227.659 262.416 227.232 260.607C226.737 258.508 226.911 256.044 228.966 254.922C231.161 253.725 233.141 251.97 234.657 250.066C235.604 248.875 236 247.939 236 246.475C236 244.755 234.907 244.254 234.242 243" stroke="#7CDFCD" stroke-width="4" stroke-linecap="round" stroke-linejoin="round"/>
<path d="M218 272C218 269.159 215.363 267.423 213.299 265.727C212.19 264.815 211.675 264.143 211.4 262.738C211.102 261.22 210.762 259.036 211.233 257.513C212.435 253.624 217.295 251.299 217.295 247" stroke="#7CDFCD" stroke-width="4" stroke-linecap="round" stroke-linejoin="round"/>
</g>
<defs>
<clipPath id="clip0">
<rect width="307.4" height="430.8" fill="white"/>
</clipPath>
</defs>
</svg>
